<svg xmlns="http://www.w3.org/2000/svg" viewBox="0 0 256 256" role="img" aria-labelledby="title desc" shape-rendering="crispEdges">
  <title id="title">Melody Hub taskbar icon</title>
  <desc id="desc">A small-size optimized cute pixel tech companion icon.</desc>
  <rect width="256" height="256" fill="#F7F8FA"/>
  <rect x="12" y="12" width="232" height="232" fill="none" stroke="#151515" stroke-width="12"/>
  <g fill="#151515">
    <rect x="120" y="28" width="16" height="16"/>
    <rect x="128" y="44" width="8" height="16"/>
    <rect x="72" y="56" width="112" height="16"/>
    <rect x="60" y="72" width="20" height="28"/>
    <rect x="176" y="72" width="20" height="28"/>
    <rect x="44" y="108" width="20" height="48"/>
    <rect x="192" y="108" width="20" height="48"/>
    <rect x="72" y="92" width="112" height="20"/>
    <rect x="60" y="112" width="20" height="64"/>
    <rect x="176" y="112" width="20" height="64"/>
    <rect x="80" y="176" width="96" height="20"/>
    <rect x="96" y="124" width="20" height="20"/>
    <rect x="140" y="124" width="20" height="20"/>
    <rect x="108" y="156" width="8" height="8"/>
    <rect x="124" y="148" width="8" height="20"/>
    <rect x="140" y="156" width="8" height="8"/>
  </g>
  <g fill="#E7EBF0">
    <rect x="80" y="112" width="96" height="64"/>
    <rect x="56" y="120" width="8" height="28"/>
    <rect x="192" y="120" width="8" height="28"/>
  </g>
  <g fill="#151515">
    <rect x="96" y="124" width="20" height="20"/>
    <rect x="140" y="124" width="20" height="20"/>
    <rect x="108" y="156" width="8" height="8"/>
    <rect x="124" y="148" width="8" height="20"/>
    <rect x="140" y="156" width="8" height="8"/>
  </g>
  <g fill="#8FB7D9">
    <rect x="124" y="32" width="8" height="8"/>
    <rect x="124" y="148" width="8" height="20"/>
  </g>
</svg>
